<svg width="33" height="33" viewBox="0 0 33 33" fill="none" xmlns="http://www.w3.org/2000/svg">
<path d="M29.3333 33H3.66667C2.69421 33 1.76157 32.6137 1.07394 31.9261C0.386308 31.2384 0 30.3058 0 29.3333V22H3.66667V29.3333H29.3333V3.66667H3.66667V11H0V3.66667C0 2.69421 0.386308 1.76157 1.07394 1.07394C1.76157 0.386308 2.69421 0 3.66667 0H29.3333C30.3058 0 31.2384 0.386308 31.9261 1.07394C32.6137 1.76157 33 2.69421 33 3.66667V29.3333C33 30.3058 32.6137 31.2384 31.9261 31.9261C31.2384 32.6137 30.3058 33 29.3333 33ZM14.6667 23.8333V18.3333H0V14.6667H14.6667V9.16667L23.8333 16.5L14.6667 23.8333Z" fill="#434343"/>
</svg>
