<svg width="33" height="33" viewBox="0 0 33 33" fill="none" xmlns="http://www.w3.org/2000/svg">
<path d="M16.4998 0C12.1411 0.0555865 7.97649 1.8118 4.89414 4.89414C1.8118 7.97649 0.0555865 12.1411 0 16.4998C0.0203754 19.039 0.626531 21.5392 1.77127 23.8058C2.91601 26.0724 4.56845 28.0441 6.59992 29.5676V29.6996H6.76491C9.55863 31.8404 12.9801 33.0006 16.4998 33.0006C20.0194 33.0006 23.4409 31.8404 26.2347 29.6996H26.3997V29.5676C28.4311 28.0441 30.0836 26.0724 31.2283 23.8058C32.3731 21.5392 32.9792 19.039 32.9996 16.4998C32.944 12.1411 31.1878 7.97649 28.1054 4.89414C25.0231 1.8118 20.8585 0.0555865 16.4998 0ZM10.0154 27.9341C10.2562 26.831 10.867 25.8434 11.7463 25.1352C12.6257 24.4269 13.7207 24.0405 14.8498 24.0402H18.1498C19.2789 24.0405 20.3739 24.4269 21.2532 25.1352C22.1326 25.8434 22.7433 26.831 22.9842 27.9341C21.0189 29.0905 18.7801 29.7002 16.4998 29.7002C14.2195 29.7002 11.9807 29.0905 10.0154 27.9341ZM25.7562 25.8057C25.1286 24.3058 24.0717 23.0247 22.7184 22.1235C21.3651 21.2223 19.7757 20.741 18.1498 20.7402H14.8498C13.2239 20.741 11.6345 21.2223 10.2811 22.1235C8.92784 23.0247 7.87102 24.3058 7.24341 25.8057C6.00702 24.5896 5.02237 23.1419 4.34574 21.5451C3.6691 19.9484 3.31374 18.2339 3.29996 16.4998C3.34275 13.0123 4.74719 9.67965 7.21342 7.21342C9.67965 4.74719 13.0123 3.34275 16.4998 3.29996C19.9873 3.34275 23.3199 4.74719 25.7862 7.21342C28.2524 9.67965 29.6568 13.0123 29.6996 16.4998C29.6858 18.2339 29.3305 19.9484 28.6538 21.5451C27.9772 23.1419 26.9926 24.5896 25.7562 25.8057Z" fill="#434343"/>
<path d="M16.4998 6.59996C15.6275 6.57964 14.7602 6.73646 13.9503 7.06094C13.1404 7.38543 12.4047 7.87083 11.7877 8.48778C11.1708 9.10474 10.6854 9.84043 10.3609 10.6503C10.0364 11.4603 9.87956 12.3276 9.89988 13.1999C9.87956 14.0721 10.0364 14.9395 10.3609 15.7494C10.6854 16.5593 11.1708 17.295 11.7877 17.912C12.4047 18.5289 13.1404 19.0143 13.9503 19.3388C14.7602 19.6633 15.6275 19.8201 16.4998 19.7998C17.3721 19.8201 18.2394 19.6633 19.0493 19.3388C19.8592 19.0143 20.5949 18.5289 21.2119 17.912C21.8288 17.295 22.3142 16.5593 22.6387 15.7494C22.9632 14.9395 23.12 14.0721 23.0997 13.1999C23.12 12.3276 22.9632 11.4603 22.6387 10.6503C22.3142 9.84043 21.8288 9.10474 21.2119 8.48778C20.5949 7.87083 19.8592 7.38543 19.0493 7.06094C18.2394 6.73646 17.3721 6.57964 16.4998 6.59996ZM16.4998 16.4998C16.0608 16.5211 15.6223 16.4502 15.2123 16.2919C14.8023 16.1336 14.43 15.8912 14.1192 15.5805C13.8084 15.2697 13.5661 14.8974 13.4078 14.4874C13.2494 14.0774 13.1786 13.6388 13.1998 13.1999C13.1786 12.7609 13.2494 12.3223 13.4078 11.9124C13.5661 11.5024 13.8084 11.13 14.1192 10.8193C14.43 10.5085 14.8023 10.2662 15.2123 10.1079C15.6223 9.94952 16.0608 9.87869 16.4998 9.89991C16.9388 9.87869 17.3773 9.94952 17.7873 10.1079C18.1973 10.2662 18.5696 10.5085 18.8804 10.8193C19.1912 11.13 19.4335 11.5024 19.5918 11.9124C19.7501 12.3223 19.821 12.7609 19.7998 13.1999C19.821 13.6388 19.7501 14.0774 19.5918 14.4874C19.4335 14.8974 19.1912 15.2697 18.8804 15.5805C18.5696 15.8912 18.1973 16.1336 17.7873 16.2919C17.3773 16.4502 16.9388 16.5211 16.4998 16.4998Z" fill="#434343"/>
</svg>
